<svg xmlns="http://www.w3.org/2000/svg" xmlns:xlink="http://www.w3.org/1999/xlink" viewBox="0,0,256,256" width="48px" height="48px" fill-rule="nonzero"><defs><linearGradient x1="-1.784" y1="5.794" x2="34.902" y2="42.48" gradientUnits="userSpaceOnUse" id="color-1"><stop offset="0" stop-color="#000000"></stop><stop offset="1" stop-color="#262626" stop-opacity="0.8"></stop></linearGradient><linearGradient x1="21.017" y1="17.426" x2="47.114" y2="43.524" gradientUnits="userSpaceOnUse" id="color-2"><stop offset="0" stop-color="#000000"></stop><stop offset="1" stop-color="#262626" stop-opacity="0.8"></stop></linearGradient></defs><g fill="none" fill-rule="nonzero" stroke="none" stroke-width="1" stroke-linecap="butt" stroke-linejoin="miter" stroke-miterlimit="10" stroke-dasharray="" stroke-dashoffset="0" font-family="none" font-weight="none" font-size="none" text-anchor="none" style="mix-blend-mode: normal"><g transform="scale(5.33333,5.33333)"><path d="M26.028,21.742c-1.893,-2.858 -2.932,-6.109 -3.48,-8.427c-0.322,-1.357 -1.525,-2.315 -2.92,-2.315h-2.628v11.777c0,2.61 -1.903,4.945 -4.5,5.199c-2.98,0.291 -5.5,-2.054 -5.5,-4.976v-9c0,-1.657 -1.343,-3 -3,-3h-2v11.65c0,5.427 4.174,10.127 9.597,10.342c5.203,0.205 9.58,-3.589 10.299,-8.552c0.841,1.263 1.805,2.462 2.9,3.541c0.474,-2.41 0.915,-4.644 1.232,-6.239z" fill="url(#color-1)"></path><path d="M37.858,13.17c-4.602,-0.845 -8.933,1.535 -10.848,5.39l0.001,-0.001c-0.386,0.777 -0.668,1.603 -0.838,2.451c-1.033,5.176 -4.038,20.556 -4.123,20.99h2.624c1.435,0 2.668,-1.01 2.943,-2.419c0.439,-2.245 1.042,-5.325 1.639,-8.366c0,0.001 0,0.002 0,0.003c1.917,0.969 4.099,1.606 6.571,1.776l0.173,0.006c5.823,0 10.5,-5.003 9.957,-10.937c-0.402,-4.39 -3.762,-8.096 -8.099,-8.893zM36.081,28c-2.281,-0.172 -4.2,-0.884 -5.812,-1.93l-0.001,0.001c0.321,-1.63 0.604,-3.057 0.808,-4.081c0.068,-0.335 0.18,-0.66 0.316,-0.974c0.897,-2.075 3.164,-3.389 5.59,-2.921c1.944,0.375 3.526,1.937 3.915,3.879c0.636,3.176 -1.762,5.977 -4.816,6.026z" fill="url(#color-2)"></path></g></g></svg>