<svg xmlns="http://www.w3.org/2000/svg" version="1.1" xmlns:xlink="http://www.w3.org/1999/xlink" xmlns:svgjs="http://svgjs.dev/svgjs" width="1500" height="1500" viewBox="0 0 1500 1500"><rect width="1500" height="1500" fill="#000000"></rect><g transform="matrix(0.6666666666666666,0,0,0.6666666666666666,248.51497270489023,483.33333333333337)"><svg viewBox="0 0 375 200" data-background-color="#000000" preserveAspectRatio="xMidYMid meet" height="800" width="1500" xmlns="http://www.w3.org/2000/svg" xmlns:xlink="http://www.w3.org/1999/xlink"><g id="tight-bounds" transform="matrix(1,0,0,1,0.556885235666158,0)"><svg viewBox="0 0 374.2368390982419 200" height="200" width="374.2368390982419"><g><svg viewBox="0 0 376.108023293733 200.99999999999997" height="200" width="374.2368390982419"><g><rect width="18.0362064" height="200.99999999999997" x="147.91383760217985" y="0" fill="#ffffff" opacity="1" stroke-width="0" stroke="transparent" fill-opacity="1" class="rect-yte-0" data-fill-palette-color="primary" rx="1%" id="yte-0" data-palette-color="#ffffff"></rect></g><g transform="matrix(1,0,0,1,213.16524400217986,0.4999999999999858)"><svg viewBox="0 0 162.94277929155314 200" height="200" width="162.94277929155314"><g id="textblocktransform"><svg viewBox="0 0 162.94277929155314 200" height="200" width="162.94277929155314" id="textblock"><g><svg viewBox="0 0 162.94277929155314 200" height="200" width="162.94277929155314"><g transform="matrix(1,0,0,1,0,0)"><svg width="162.94277929155314" viewBox="1.65 -36.5 29.9 36.7" height="200" data-palette-color="#ffffff"><path d="M12.15-22.65L12.7-22.55 20.2-33.15Q22.2-36 24.55-36.38 26.9-36.75 28.8-35.25L28.8-35.25Q30.05-34.3 30.45-32.7 30.85-31.1 30.2-29.3 29.55-27.5 27.6-25.9L27.6-25.9 19.25-19.15 19.25-18.1Q20.85-18.1 23-17.7 25.15-17.3 26.9-15.9L26.9-15.9Q28.3-14.85 29.33-13.5 30.35-12.15 30.95-10.18 31.55-8.2 31.55-5.2L31.55-5.2Q31.55-2.75 30.23-1.28 28.9 0.2 26.3 0.2L26.3 0.2Q23.7 0.2 22.33-1.28 20.95-2.75 20.95-5.2L20.95-5.2Q20.95-7.95 20.08-9.58 19.2-11.2 17.75-11.95 16.3-12.7 14.6-12.7L14.6-12.7 12.15-12.7 12.15-4.85Q12.15-2.7 10.68-1.3 9.2 0.1 6.9 0.1L6.9 0.1Q4.6 0.1 3.13-1.3 1.65-2.7 1.65-4.85L1.65-4.85 1.65-31.3Q1.65-33.5 3.1-35 4.55-36.5 6.9-36.5L6.9-36.5Q9.4-36.5 10.78-35.02 12.15-33.55 12.15-31.4L12.15-31.4 12.15-22.65Z" opacity="1" transform="matrix(1,0,0,1,0,0)" fill="#ffffff" class="wordmark-text-0" data-fill-palette-color="primary" id="text-0"></path></svg></g></svg></g></svg></g></svg></g><g transform="matrix(1,0,0,1,0,54.74729071383714)"><svg viewBox="0 0 100.69863760217984 91.5054185723257" height="91.5054185723257" width="100.69863760217984"><g><svg xmlns="http://www.w3.org/2000/svg" xmlns:xlink="http://www.w3.org/1999/xlink" version="1.1" x="0" y="0" viewBox="9.888 16.166 80.22399999999999 72.90000018220053" enable-background="new 0 0 100 100" xml:space="preserve" height="91.5054185723257" width="100.69863760217984" class="icon-icon-0" data-fill-palette-color="accent" id="icon-0"><path d="M82.112 16.166H17.888A8 8 0 0 0 9.888 24.166V67.15A8 8 0 0 0 17.888 75.15H38.642L35.118 83.512A4 4 0 0 0 38.805 89.066H61.805A4 4 0 0 0 65.5 83.536L62.027 75.15H82.112A8 8 0 0 0 90.112 67.15V24.166A8 8 0 0 0 82.112 16.166M55.818 81.066H44.83L47.323 75.15H53.369zM82.112 67.15H17.888V24.166H82.113V67.15z" fill="#ffffff" data-fill-palette-color="accent"></path></svg></g></svg></g></svg></g><defs></defs></svg><rect width="374.2368390982419" height="200" fill="none" stroke="none" visibility="hidden"></rect></g></svg></g></svg>